# xmcd CD database file
#
# Track frame offsets:
#	150
#	15975
#	33143
#	46574
#	60389
#	76930
#	92582
#	107396
#	125480
#	138661
#
# Disc length: 2033 seconds
#
# Revision: 0
# Processed by: cddbd v1.5.2PL0 Copyright (c) Steve Scherf et al.
# Submitted via: CDex 1.70
#
DISCID=6707ef0a
DTITLE=Saskia and Dallel The Great Plains - The Bluebird Trail
DYEAR=1900
DGENRE=Country
TTITLE0=Bluebird Trail
TTITLE1=Prairie Elevator
TTITLE2=Patchwork Quilt
TTITLE3=There's A Bear
TTITLE4=Sing Low
TTITLE5=Walking Shoes
TTITLE6=Orphan Girl
TTITLE7=Major Rogers
TTITLE8=Cabin Fever
TTITLE9=Everybody Loves A Train
EXTD=
EXTT0=
EXTT1=
EXTT2=
EXTT3=
EXTT4=
EXTT5=
EXTT6=
EXTT7=
EXTT8=
EXTT9=
PLAYORDER=
